<?xml version="1.0" encoding="UTF-8"?>
<svg version="1.1" xmlns="http://www.w3.org/2000/svg" width="512" height="512">
<path d="M0 0 C2.5 2 2.5 2 5 5 C6.20565454 6.12787037 7.41430907 7.25253756 8.625 8.375 C18.84305112 18.65078023 26.39374508 31.19579564 33 44 C33.31952637 44.61842773 33.63905273 45.23685547 33.96826172 45.87402344 C45.74363474 69.03082077 51.39622 94.09304954 50.95703125 120.03515625 C50.93463083 122.33267354 50.91317677 124.63020022 50.89257812 126.92773438 C50.85570168 130.48618878 50.81280763 134.04414487 50.75317383 137.60229492 C50.299558 166.10481979 56.25686366 186.72704727 70.79199219 211.11108398 C86.50524188 237.55189141 94.24910688 264.38420676 87 295 C83.67723854 306.74655579 79.47203471 318.28973082 74.91015625 329.609375 C70.47233761 341.26579134 73.43401933 351.88820964 78 363 C78.92122388 365.37323605 79.83808483 367.74817155 80.75 370.125 C81.36101562 371.67574219 81.36101562 371.67574219 81.984375 373.2578125 C85.43835869 382.58356847 85.32503494 393.2142466 81.44140625 402.40234375 C76.02305415 412.16712463 67.81585121 418.3490367 57.14080811 421.55906677 C54.72212667 422.0572324 52.51753255 422.11989055 50.04785156 422.11352539 C48.57677948 422.11341209 48.57677948 422.11341209 47.07598877 422.11329651 C46.02481873 422.10813522 44.97364868 422.10297394 43.890625 422.09765625 C42.80867859 422.0962413 41.72673218 422.09482635 40.61199951 422.09336853 C37.1579715 422.08777318 33.70400841 422.0752215 30.25 422.0625 C27.90755302 422.0574844 25.56510502 422.0529216 23.22265625 422.04882812 C17.4817487 422.03780528 11.74087899 422.02107174 6 422 C6.02094727 422.94842773 6.04189453 423.89685547 6.06347656 424.87402344 C6.1317356 428.40016425 6.18183929 431.92560099 6.21972656 435.45214844 C6.23981599 436.97700085 6.26709316 438.50177648 6.30175781 440.02636719 C6.35039796 442.22089598 6.37299396 444.41440469 6.390625 446.609375 C6.41157227 447.92905273 6.43251953 449.24873047 6.45410156 450.60839844 C6 454 6 454 4.10058594 456.42651367 C1.83800176 458.12134806 0.79247247 458.56795405 -2 458.5625 C-2.66 458.58441406 -3.32 458.60632813 -4 458.62890625 C-7.20509093 457.62105539 -8.20820145 455.79244312 -10 453 C-10.37681959 450.14883639 -10.53498686 447.67677774 -10.50390625 444.83203125 C-10.5180381 443.64150398 -10.5180381 443.64150398 -10.53245544 442.42692566 C-10.56103229 439.88852269 -10.56419221 437.35105013 -10.5625 434.8125 C-10.58673553 418.30810207 -11.59155606 402.28534694 -17.0625 386.5625 C-17.35850098 385.69761963 -17.65450195 384.83273926 -17.95947266 383.94165039 C-23.0399533 369.71604578 -30.2824471 356.57506744 -40 345 C-40.71800781 344.14277344 -41.43601562 343.28554688 -42.17578125 342.40234375 C-47.65615037 336.10429966 -53.66758843 330.43490442 -60 325 C-60.68449219 324.39027344 -61.36898437 323.78054688 -62.07421875 323.15234375 C-63.89195233 321.82453627 -63.89195233 321.82453627 -65.85546875 322.08203125 C-68.8447914 323.36161381 -71.53115532 325.00329475 -74.3125 326.6875 C-81.56833415 330.98379439 -89.10629018 334.08131738 -97 337 C-97.01458252 337.79059814 -97.02916504 338.58119629 -97.04418945 339.39575195 C-97.11941703 343.03511881 -97.21582859 346.67364206 -97.3125 350.3125 C-97.34633789 352.17745117 -97.34633789 352.17745117 -97.38085938 354.08007812 C-97.79616574 368.46478053 -101.1236293 380.38736285 -110.984375 391.1484375 C-120.0693567 399.49394394 -131.7941156 403.37457506 -143.96875 403.2109375 C-156.23081177 402.3576497 -166.63521007 397.37191382 -175.109375 388.484375 C-181.39655686 380.22270628 -185.14020358 371.20967247 -185.09765625 360.828125 C-185.09553383 359.8044986 -185.09553383 359.8044986 -185.09336853 358.76019287 C-185.08779084 356.59008316 -185.07524254 354.4200783 -185.0625 352.25 C-185.05748211 350.77474108 -185.05291971 349.29948053 -185.04882812 347.82421875 C-185.03782875 344.21611202 -185.02057953 340.60806625 -185 337 C-185.61891113 336.83564453 -186.23782227 336.67128906 -186.87548828 336.50195312 C-192.97417894 334.79158501 -198.3364212 332.55125341 -203.875 329.5 C-204.6071875 329.10941406 -205.339375 328.71882813 -206.09375 328.31640625 C-209.0056822 326.74396286 -211.65427152 325.29036271 -214.1953125 323.15625 C-215.97665633 321.78258 -215.97665633 321.78258 -218.37890625 322.0234375 C-221.78137198 323.2911222 -224.23911341 325.26790804 -226.9375 327.625 C-227.49526123 328.09848877 -228.05302246 328.57197754 -228.62768555 329.05981445 C-231.86886661 331.8853092 -234.82794194 334.84779157 -237.6796875 338.06640625 C-238.2869165 338.74944824 -238.89414551 339.43249023 -239.51977539 340.13623047 C-240.69416811 341.47999291 -241.84807861 342.84200014 -242.97827148 344.22314453 C-246.90399916 348.74268468 -246.90399916 348.74268468 -250.10888672 349.49511719 C-253.82750483 349.60476118 -255.63834735 349.30740475 -258.5 346.875 C-260.29217276 343.44000222 -260.48423701 341.83664704 -260 338 C-258.40130956 335.63135204 -256.90824509 333.70646701 -255 331.625 C-254.49815186 331.05773193 -253.99630371 330.49046387 -253.47924805 329.90600586 C-252.00420927 328.25303038 -250.5080273 326.62287535 -249 325 C-248.26394531 324.20464844 -247.52789062 323.40929687 -246.76953125 322.58984375 C-242.53868219 318.20698813 -237.98221429 314.49815046 -233 311 C-234.36546846 307.89051738 -235.86602476 306.01548819 -238.375 303.75 C-247.79567283 294.46561177 -254.97562453 283.65906804 -261.125 272 C-261.81686401 270.69252808 -261.81686401 270.69252808 -262.52270508 269.35864258 C-265.10602669 264.2896941 -266.85156055 259.57444767 -268 254 C-268.99 254.33 -269.98 254.66 -271 255 C-282.81446094 255.94826594 -292.84865462 254.3345416 -302.16015625 246.6796875 C-310.54913325 239.02096115 -315.9959804 230.68599259 -316.54101562 219.00805664 C-316.66496561 207.06237717 -313.30181588 197.67455047 -305 189 C-298.19323749 182.77667427 -290.9440777 179.03380264 -281.703125 178.39453125 C-280.63223633 178.3169458 -279.56134766 178.23936035 -278.45800781 178.15942383 C-277.24129395 178.08050903 -277.24129395 178.08050903 -276 178 C-276.00666183 177.2786084 -276.01332367 176.5572168 -276.02018738 175.81396484 C-276.08050341 168.98821706 -276.12607807 162.16250954 -276.15543652 155.33656311 C-276.17103791 151.82793736 -276.19217364 148.31953334 -276.22631836 144.81103516 C-276.26539753 140.76983612 -276.2797548 136.72886702 -276.29296875 132.6875 C-276.31619453 130.81360596 -276.31619453 130.81360596 -276.33988953 128.90185547 C-276.34174607 119.22867747 -274.95954902 112.14397679 -268.2109375 104.8828125 C-262.60554632 100.10931683 -255.56892863 97.563665 -248.75 95 C-238.11567719 90.79731563 -232.33754927 83.61645859 -227.78125 73.21875 C-226.16004508 68.74815461 -225.01409935 64.32861517 -224.26953125 59.63671875 C-224.14932617 58.8802002 -224.02912109 58.12368164 -223.90527344 57.34423828 C-223.6819274 55.85749181 -223.47966238 54.36737758 -223.30175781 52.87451172 C-222.56687093 47.71946096 -221.10012334 45.19301641 -217 42 C-214.3045977 40.87302062 -211.90169026 40.73100702 -209 41 C-203.69993164 43.33203008 -201.53520541 47.05966417 -198.546875 51.7578125 C-192.08706894 61.12126875 -181.28155844 64.84270017 -170.54556274 67.04444885 C-160.33790018 68.89040631 -149.84823153 68.13298333 -139.52832031 67.86303711 C-119.4891023 67.38122551 -105.63180646 70.67390309 -90.57421875 84.69140625 C-74.27682056 99.30713057 -58.3423443 103.05963608 -36.89257812 103.4296875 C-28.86477003 103.6718841 -22.03834036 104.65572919 -15.75 110.125 C-15.12609375 110.64320313 -14.5021875 111.16140625 -13.859375 111.6953125 C-7.87023517 119.11882615 -7.44434354 126.66457079 -7.609375 135.91015625 C-7.61503479 137.11820419 -7.62069458 138.32625214 -7.62652588 139.57090759 C-7.64878647 143.40185386 -7.69896626 147.23183986 -7.75 151.0625 C-7.77007821 153.67121038 -7.78832666 156.27993553 -7.8046875 158.88867188 C-7.84861758 165.2594382 -7.91542702 171.62965047 -8 178 C-6.36792603 177.97945557 -6.36792603 177.97945557 -4.70288086 177.95849609 C6.12399679 178.07984964 14.53779565 182.75910043 22.12109375 190.03515625 C30.1097043 198.34624282 33.38042187 207.8840235 33.2109375 219.32421875 C32.4103473 229.47985364 27.59429869 238.9926796 20.125 245.875 C11.92415647 252.51377809 3.07093475 255.37497192 -7.4375 255.125 C-8.16904297 255.11597656 -8.90058594 255.10695313 -9.65429688 255.09765625 C-11.43634298 255.07436153 -13.21821759 255.0385019 -15 255 C-15.43570312 256.02738281 -15.87140625 257.05476563 -16.3203125 258.11328125 C-24.31165468 276.79822064 -34.07546956 292.90409277 -48.91796875 306.9609375 C-51.04904378 308.82633629 -51.04904378 308.82633629 -52 311 C-51.43667969 311.24621094 -50.87335938 311.49242187 -50.29296875 311.74609375 C-45.59622368 314.31450119 -41.88214894 318.35869339 -38 322 C-37.24074219 322.70511719 -36.48148437 323.41023438 -35.69921875 324.13671875 C-13.68108686 345.29446182 0.29077692 374.98377452 5 405 C11.68932017 405.10181508 18.37843887 405.17163915 25.06835938 405.21972656 C27.34187284 405.23978317 29.6153351 405.26703538 31.88867188 405.30175781 C35.16549349 405.35053712 38.44163025 405.37302897 41.71875 405.390625 C42.72740112 405.41127014 43.73605225 405.43191528 44.77526855 405.45318604 C51.03660776 405.45515575 55.7935176 404.63034584 61 401 C65.76479032 395.98443124 67.52313695 391.73424264 67.3828125 384.8984375 C66.6375572 379.25579023 64.21376948 374.20145836 62 369 C61.07293405 366.6707789 60.15595189 364.33751436 59.25 362 C58.63898438 360.453125 58.63898438 360.453125 58.015625 358.875 C51.67230373 340.91852132 58.55094968 323.56825236 65.06079102 306.8359375 C69.00877494 296.58809791 72.5012196 286.05629889 73 275 C73.07734375 273.90945313 73.07734375 273.90945313 73.15625 272.796875 C74.02652018 250.89507551 63.42857639 232.16327381 52.76611328 213.88476562 C44.3526028 199.4616048 38.50619163 185.38020809 35 169 C34.81985352 168.16428467 34.63970703 167.32856934 34.45410156 166.4675293 C33.81921461 161.61951884 33.91801104 156.84397163 33.97265625 151.9609375 C33.98532417 149.74739752 33.99768347 147.53385576 34.00976562 145.3203125 C34.03432923 141.86973341 34.06206549 138.4192506 34.09594727 134.96875 C34.50798615 90.11815481 24.74927153 51.987926 -6.04296875 18.17578125 C-12.02583344 11.5241732 -12.02583344 11.5241732 -11.9375 6.3125 C-11 3 -11 3 -9.9375 1.0625 C-6.71099553 -0.70687342 -3.51739864 -0.72294359 0 0 Z M-209 66 C-209.20753906 66.85980469 -209.41507813 67.71960938 -209.62890625 68.60546875 C-213.71579199 84.28611403 -220.54107167 97.63621046 -234.6875 106.28125 C-239.32748871 108.68879131 -244.14657024 110.5975823 -249.07373047 112.34008789 C-249.76869629 112.60039795 -250.46366211 112.86070801 -251.1796875 113.12890625 C-251.79569824 113.34619385 -252.41170898 113.56348145 -253.04638672 113.78735352 C-256.59440538 115.98967902 -259.49731595 118.85226556 -260.46214104 122.97451305 C-260.63492243 125.29137633 -260.65303719 127.56194496 -260.61523438 129.88500977 C-260.62078339 130.75923584 -260.6263324 131.63346191 -260.63204956 132.53417969 C-260.64384129 135.42048307 -260.61954629 138.30521266 -260.59375 141.19140625 C-260.5920364 143.21760487 -260.59210711 145.2438057 -260.59387207 147.27000427 C-260.59221823 151.52453755 -260.57353086 155.77854442 -260.54199219 160.03295898 C-260.50269471 165.42517814 -260.49790259 170.81669627 -260.50545502 176.20903111 C-260.50856394 180.40217749 -260.4962609 184.5951732 -260.47932434 188.78828239 C-260.47239668 190.77212511 -260.46915704 192.75598493 -260.47001648 194.73983955 C-260.44755199 228.91853351 -253.76384692 261.43506044 -231 288 C-229.98486328 289.23363281 -229.98486328 289.23363281 -228.94921875 290.4921875 C-209.26528275 313.59472298 -179.60065986 325.18101982 -149.96875 327.84326172 C-121.55344538 330.10549207 -89.8781608 321.63830005 -68 303 C-64.5868716 300.07880838 -61.27072146 297.07931951 -58 294 C-57.38511719 293.44957031 -56.77023437 292.89914062 -56.13671875 292.33203125 C-36.50414082 274.05342422 -25.11593037 243.14341561 -23.89845848 216.80312538 C-23.85024896 214.41306131 -23.83071463 212.02457122 -23.82299805 209.6340332 C-23.81314125 208.28370499 -23.81314125 208.28370499 -23.80308533 206.90609741 C-23.78351852 203.95432432 -23.77173353 201.00260143 -23.76171875 198.05078125 C-23.75764322 197.03833029 -23.7535677 196.02587933 -23.74936867 194.98274803 C-23.72858926 189.63425277 -23.71424681 184.28578263 -23.70483398 178.93725586 C-23.69372409 173.41573827 -23.65924857 167.8946186 -23.61966228 162.37324238 C-23.59355101 158.12075542 -23.58514755 153.86836475 -23.58155251 149.61580467 C-23.57668049 147.57962512 -23.56504906 145.54345004 -23.54651451 143.50734901 C-23.52221693 140.66383386 -23.52306968 137.82136995 -23.5300293 134.9777832 C-23.51721924 134.13870926 -23.50440918 133.29963531 -23.49121094 132.43513489 C-23.52703873 128.42179814 -23.69981777 126.47266465 -25.90437317 123.00138855 C-28.9924682 120.05216212 -30.71873461 119.87094677 -34.8828125 119.7890625 C-60.20396835 119.12660232 -79.6127142 115.45157978 -99.25 98.15234375 C-109.58676374 89.07263044 -118.68039689 83.7584361 -132.76171875 84.0078125 C-134.53970748 84.02536475 -136.3177027 84.04226945 -138.09570312 84.05859375 C-140.87071238 84.08919779 -143.64538534 84.12428511 -146.42016602 84.17138672 C-167.79805233 84.51460524 -187.53613722 82.57228378 -205 69 C-206.33251006 67.99890325 -207.66557813 66.99854697 -209 66 Z M-293.1328125 199.87109375 C-298.78583175 206.12725941 -300.60370785 211.42432668 -300.4375 219.859375 C-299.58791032 225.95821517 -296.68586175 230.80477589 -291.92578125 234.6953125 C-287.25406335 237.71768083 -283.42306458 239.13536448 -277.8125 239.0625 C-276.91144531 239.05347656 -276.01039063 239.04445313 -275.08203125 239.03515625 C-274.39496094 239.02355469 -273.70789063 239.01195312 -273 239 C-273.05534912 238.31188232 -273.11069824 237.62376465 -273.16772461 236.91479492 C-274.31094643 222.61678965 -275.3439696 208.32908512 -276 194 C-282.44955886 193.724574 -288.23766766 195.57663518 -293.1328125 199.87109375 Z M-8 194 C-8.01981934 194.65258789 -8.03963867 195.30517578 -8.06005859 195.97753906 C-8.51706167 210.39459728 -9.35072771 224.6689447 -11 239 C-3.06986584 239.27838599 2.39089556 238.72892818 9 234 C13.98622437 228.98286929 16.57796718 223.72795659 17.375 216.6875 C16.7171282 210.21842726 14.52320845 205.00189137 9.625 200.625 C5.27617367 197.29182313 1.30551233 195.04030856 -4.19140625 194.42578125 C-5.44824219 194.28527344 -6.70507812 194.14476562 -8 194 Z M-169 342 C-169.14714061 345.79124747 -169.23467827 349.58174654 -169.3125 353.375 C-169.35439453 354.43589844 -169.39628906 355.49679687 -169.43945312 356.58984375 C-169.57582565 365.48133235 -167.4968673 371.71825191 -161.859375 378.62109375 C-155.37987059 384.200667 -148.99138481 387.75272325 -140.16796875 387.34765625 C-132.46865321 386.11299124 -125.00245017 383.148845 -120 377 C-116.25456856 370.83564409 -113.85814361 365.26444874 -113.90234375 358.015625 C-113.90556641 357.08105469 -113.90878906 356.14648438 -113.91210938 355.18359375 C-113.92048828 354.21550781 -113.92886719 353.24742187 -113.9375 352.25 C-113.94201172 351.26644531 -113.94652344 350.28289062 -113.95117188 349.26953125 C-113.96293517 346.84629209 -113.97937316 344.42317727 -114 342 C-114.77021484 342.0707373 -115.54042969 342.14147461 -116.33398438 342.21435547 C-124.73880782 342.93070426 -133.06730447 343.15182724 -141.5 343.125 C-142.71558594 343.12886719 -143.93117187 343.13273437 -145.18359375 343.13671875 C-153.16629269 343.12819933 -161.05116606 342.73002889 -169 342 Z " fill="#a6a6a6" transform="translate(398,54)"/>
<path d="M0 0 C0.86012695 0.19255371 1.72025391 0.38510742 2.60644531 0.58349609 C17.82809885 4.06198393 31.94980834 9.43774995 46.0625 16.0625 C47.38386963 16.67967896 47.38386963 16.67967896 48.73193359 17.30932617 C61.78910944 23.57821888 61.78910944 23.57821888 64 28 C64.4104525 31.69407253 64.22767266 33.5810823 62.4375 36.875 C60 39 60 39 56.765625 39.3515625 C52.40529609 38.94447785 50.0661271 37.72563978 46.3125 35.5 C25.44795259 23.68842746 2.54932871 17.59227048 -21 14 C-21.67426025 13.89469971 -22.34852051 13.78939941 -23.04321289 13.6809082 C-70.55902472 7.32214926 -123.2020346 18.84445531 -161.77685547 47.8190918 C-167.8499035 52.52922523 -173.47032664 57.67067712 -179 63 C-179.76570313 63.70253906 -180.53140625 64.40507813 -181.3203125 65.12890625 C-207.29131691 89.65707708 -221.96130975 125.75027749 -224 161 C-224.23799054 170.57659258 -224.00175942 180.16938571 -223.80810547 189.74536133 C-223.22638773 220.6611399 -230.66185374 245.55835175 -247.125 271.625 C-259.85113647 291.98174817 -266.18630063 313.8754784 -261.03857422 337.82177734 C-259.30795395 345.18379822 -256.56790846 352.23509399 -253.9375 359.3125 C-246.38895099 379.73627621 -242.54253196 397.96743022 -251.56640625 418.765625 C-252.59080751 420.9674706 -253.64221535 423.15712834 -254.73046875 425.328125 C-257.2922703 430.71973195 -257.78077869 436.09092489 -257 442 C-254.76349833 447.64909473 -251.34747967 451.09376105 -246 454 C-243.09560239 454.96813254 -241.2718176 455.12144834 -238.25317383 455.11352539 C-237.29240433 455.11344986 -236.33163483 455.11337433 -235.3417511 455.11329651 C-234.30729355 455.10813522 -233.272836 455.10297394 -232.20703125 455.09765625 C-231.14586594 455.0962413 -230.08470062 455.09482635 -228.99137878 455.09336853 C-225.59839065 455.08776606 -222.20546823 455.07521314 -218.8125 455.0625 C-216.51367283 455.05748532 -214.21484462 455.05292236 -211.91601562 455.04882812 C-206.27732128 455.03779583 -200.63866534 455.0210553 -195 455 C-194.8616272 454.40639679 -194.72325439 453.81279358 -194.58068848 453.20120239 C-193.94212828 450.46938072 -193.29921744 447.73860009 -192.65625 445.0078125 C-192.32995605 443.60752808 -192.32995605 443.60752808 -191.99707031 442.17895508 C-187.15243954 421.66104659 -187.15243954 421.66104659 -182.5703125 418.125 C-179.00025678 416.56242242 -176.72494334 417.03427395 -173 418 C-171.0625 419.0625 -171.0625 419.0625 -170 421 C-169.54548249 427.49310726 -170.8367745 432.55923928 -172.875 438.6875 C-175.31607384 446.41839431 -177.20774677 453.90565378 -178 462 C-178.12483765 463.2365332 -178.12483765 463.2365332 -178.25219727 464.49804688 C-178.78415433 470.20162249 -179.07735905 475.86579431 -179.17578125 481.59375 C-179.21155273 483.53894531 -179.21155273 483.53894531 -179.24804688 485.5234375 C-179.28055153 487.52887596 -179.3127263 489.53438064 -179.32592773 491.54003906 C-179.34137623 493.51649594 -179.38321085 495.49269124 -179.42578125 497.46875 C-179.44036377 498.62826172 -179.45494629 499.78777344 -179.4699707 500.98242188 C-180.1050235 504.59792281 -181.12921621 505.78381618 -184 508 C-186.25390625 508.53125 -186.25390625 508.53125 -188.5625 508.5 C-189.32691406 508.5103125 -190.09132813 508.520625 -190.87890625 508.53125 C-193 508 -193 508 -194.61425781 506.42871094 C-196.53878744 503.05569813 -196.33901522 500.47727842 -196.29296875 496.609375 C-196.28872391 495.90476135 -196.28447906 495.20014771 -196.28010559 494.47418213 C-196.26336538 492.23239288 -196.22572404 489.99151569 -196.1875 487.75 C-196.17244704 486.22657552 -196.1587597 484.70313689 -196.14648438 483.1796875 C-196.11347791 479.45283059 -196.06172854 475.72650437 -196 472 C-196.58944901 472.00888245 -197.17889801 472.01776489 -197.78620911 472.0269165 C-203.96764343 472.11598584 -210.148893 472.17597936 -216.33081055 472.21972656 C-218.63231827 472.23973827 -220.93377582 472.26695631 -223.23510742 472.30175781 C-226.55920862 472.35073699 -229.88263276 472.37307401 -233.20703125 472.390625 C-234.2220723 472.41127014 -235.23711334 472.43191528 -236.28291321 472.45318604 C-246.77800136 472.45642095 -256.2462026 469.38222144 -263.99609375 462.1328125 C-271.10372492 454.8034754 -274.11441786 447.44099631 -274.5625 437.25 C-274.21639509 425.95214698 -269.48406133 415.71195045 -265.015625 405.48828125 C-260.20801787 393.70964379 -263.64903897 382.3130267 -268 371 C-279.43340264 340.92885181 -279.43340264 340.92885181 -280 327 C-280.0515625 325.99195313 -280.103125 324.98390625 -280.15625 323.9453125 C-280.86358702 297.95067694 -270.19838172 276.15160127 -257.03662109 254.38085938 C-242.16668752 229.75376635 -240.43526693 206.41619805 -240.50506592 178.20227051 C-240.58971119 137.15789874 -232.41601438 99.46968434 -206 67 C-205.54753906 66.44070801 -205.09507812 65.88141602 -204.62890625 65.30517578 C-190.34764108 47.76805307 -173.56418119 34.31676588 -154 23 C-152.40091797 22.05060547 -152.40091797 22.05060547 -150.76953125 21.08203125 C-131.26516511 10.04057652 -109.88264166 3.38328919 -88 -1 C-87.19014648 -1.17644043 -86.38029297 -1.35288086 -85.54589844 -1.53466797 C-58.53639252 -7.31096968 -26.80820295 -6.20234744 0 0 Z " fill="#a6a6a6" transform="translate(304,4)"/>
<path d="M0 0 C2.22984372 1.43860885 2.79337156 2.31953394 3.55541992 4.82910156 C4.01979116 7.09664085 4.14196738 9.17140897 4.17578125 11.484375 C4.19962891 12.33773437 4.22347656 13.19109375 4.24804688 14.0703125 C4.29063412 15.84090946 4.32208991 17.6118131 4.34179688 19.3828125 C4.56236471 26.21528586 5.91146059 31.82379463 10.7890625 36.83984375 C16.64312306 40.33982464 22.43199581 41.90881759 29.23828125 40.5546875 C35.08102589 38.64011581 38.6860586 35.45566718 41.609375 29.9921875 C43.91023894 24.4381273 43.43534663 18.47585592 43.43945312 12.5625 C43.52827736 8.28668532 43.62424875 5.65530359 45.78515625 1.88671875 C48.12045206 -0.10260731 48.98584965 -0.66257921 52 -0.5625 C52.66 -0.56378906 53.32 -0.56507813 54 -0.56640625 C56.88857511 0.25164725 58.09327603 1.71100422 60 4 C60.51757812 6.46679688 60.51757812 6.46679688 60.53125 9.21875 C60.54369751 10.73263306 60.54369751 10.73263306 60.55639648 12.27709961 C60.53778564 13.34065674 60.5191748 14.40421387 60.5 15.5 C60.48718994 16.58482666 60.47437988 17.66965332 60.46118164 18.78735352 C60.16088081 30.64166209 57.82727426 40.55724716 49 49 C40.20580844 55.3895298 31.00033036 58.99500476 20 58 C9.43617106 56.29941089 1.04471829 52.38402287 -5.71875 43.9296875 C-11.5733422 35.11210047 -12.22503318 26.82108503 -12.3125 16.5 C-12.34150391 15.35917969 -12.37050781 14.21835938 -12.40039062 13.04296875 C-12.40876953 11.94597656 -12.41714844 10.84898437 -12.42578125 9.71875 C-12.44765503 8.21731445 -12.44765503 8.21731445 -12.4699707 6.68554688 C-11.20955643 -0.51682038 -6.06457911 -0.67384212 0 0 Z " fill="#a6a6a6" transform="translate(283,224)"/>
<path d="M0 0 C0.66 -0.02191406 1.32 -0.04382813 2 -0.06640625 C5.3386117 0.98343063 6.2713635 2.54593433 8 5.5625 C8.50170227 8.95889724 8.45491716 12.32212319 8.4375 15.75 C8.66177024 26.94705756 8.66177024 26.94705756 14 36.5625 C18.0366465 40.34236238 22.95848907 41.38847494 28.375 41.71875 C33.79369491 41.39620864 38.83457537 39.75275748 42.703125 35.83984375 C45.76830222 31.69128492 47.09252141 28.14285348 47.24609375 23.0703125 C47.27896484 22.20019531 47.31183594 21.33007812 47.34570312 20.43359375 C47.40663594 18.61079516 47.46395964 16.78787216 47.51757812 14.96484375 C47.92169485 4.64080515 47.92169485 4.64080515 52 0.5625 C59.13673554 -0.12815183 59.13673554 -0.12815183 62.09399414 2.23779297 C65.59120936 6.50325771 64.6128647 11.76531825 64.5625 17.0625 C64.59827148 18.74472656 64.59827148 18.74472656 64.63476562 20.4609375 C64.61589746 31.35415983 61.53571671 40.93797752 53.87109375 48.8828125 C45.93403794 56.00793567 36.13695305 59.23637071 25.47265625 58.84765625 C15.1755214 57.66015097 6.72974456 53.02777693 -0.39453125 45.59375 C-7.44849025 36.66903302 -8.21964742 28.01910409 -8.3125 17.0625 C-8.34150391 15.92167969 -8.37050781 14.78085938 -8.40039062 13.60546875 C-8.40876953 12.50847656 -8.41714844 11.41148437 -8.42578125 10.28125 C-8.44765503 8.77981445 -8.44765503 8.77981445 -8.4699707 7.24804688 C-7.6577263 2.6066503 -4.71324218 -0.00920555 0 0 Z " fill="#a6a6a6" transform="translate(177,223.4375)"/>
<path d="M0 0 C3.85873684 3.14280768 6.20905697 5.14414371 7.734375 9.9609375 C7.45092016 14.87415481 7.45092016 14.87415481 5.546875 17.2109375 C2.87878536 18.72525864 1.2389472 19.28276707 -1.82421875 18.96484375 C-4.87987448 18.08855615 -6.6963452 16.77746303 -9.203125 14.8359375 C-16.755516 9.39508777 -24.10321861 6.96521644 -33.453125 8.2109375 C-40.22018768 9.88380076 -45.34812285 12.5988431 -50.74609375 16.94140625 C-52.99462378 18.61365398 -54.64723301 19.2109375 -57.453125 19.2109375 C-60.35869302 18.46765266 -61.92503257 17.85905094 -63.828125 15.5234375 C-64.82586801 11.83178837 -64.62273106 9.90443033 -63.453125 6.2109375 C-48.26304968 -12.24167132 -18.65642751 -13.6061207 0 0 Z " fill="#a6a6a6" transform="translate(284.453125,311.7890625)"/>
<path d="M0 0 C3.69770978 0.86067383 6.54109285 2.95023953 9.6953125 5 C15.90613744 8.69062698 23.06567897 9.81723893 30.13671875 10.8046875 C32.9376044 11.75544685 33.78743754 13.00791733 35.265625 15.52734375 C35.7992044 19.10994831 35.45982528 21.0806831 34.015625 24.40234375 C29.44847969 27.93150149 24.81368537 27.21436992 19.265625 26.52734375 C9.85374267 24.58557191 -1.91788835 20.76309994 -8.57421875 13.52734375 C-10.38052748 10.4134378 -10.17387338 8.04333076 -9.734375 4.52734375 C-7.31001415 0.58775737 -4.58758883 -0.21238837 0 0 Z " fill="#a6a6a6" transform="translate(279.734375,179.47265625)"/>
<path d="M0 0 C1.90625 0.34375 1.90625 0.34375 4.40625 1.90625 C6.51631839 5.33511114 6.53116523 7.38595351 5.90625 11.34375 C2.25201203 15.72883556 -1.80212002 18.09658382 -6.84375 20.53125 C-7.55748779 20.87929687 -8.27122559 21.22734375 -9.0065918 21.5859375 C-13.94897195 23.93425694 -18.59111709 25.88519726 -24.09375 26.34375 C-25.0321875 26.42367187 -25.970625 26.50359375 -26.9375 26.5859375 C-34.12419057 26.90744734 -34.12419057 26.90744734 -37.78125 24.78125 C-39.63940027 21.33039949 -39.70387353 19.20786566 -39.09375 15.34375 C-37.34375 12.53125 -37.34375 12.53125 -34.09375 10.34375 C-31.19684456 9.69950628 -28.31373352 9.31551857 -25.37109375 8.93359375 C-19.29701243 7.84040391 -12.90202169 5.53378277 -8 1.7109375 C-5.2740654 -0.24413855 -3.26205074 -0.14606197 0 0 Z " fill="#a6a6a6" transform="translate(240.09375,179.65625)"/>
</svg>
